<svg width="21" height="17" viewBox="0 0 21 17" fill="none" xmlns="http://www.w3.org/2000/svg">
<path d="M0 0.75C0 0.375 0.328125 0 0.75 0H20.25C20.625 0 21 0.375 21 0.75C21 1.17188 20.625 1.5 20.25 1.5H0.75C0.328125 1.5 0 1.17188 0 0.75ZM0 8.25C0 7.875 0.328125 7.5 0.75 7.5H20.25C20.625 7.5 21 7.875 21 8.25C21 8.67188 20.625 9 20.25 9H0.75C0.328125 9 0 8.67188 0 8.25ZM20.25 16.5H0.75C0.328125 16.5 0 16.1719 0 15.75C0 15.375 0.328125 15 0.75 15H20.25C20.625 15 21 15.375 21 15.75C21 16.1719 20.625 16.5 20.25 16.5Z" fill="black"/>
</svg>
