<svg width="28" height="24" viewBox="0 0 28 24" fill="none" xmlns="http://www.w3.org/2000/svg">
<path d="M3.75 0C4.07812 0 4.35938 0.28125 4.45312 0.609375L4.6875 1.5H25.3594C26.3438 1.5 27.0938 2.48438 26.8125 3.42188L24.2812 12.4219C24.0938 13.0781 23.5312 13.5 22.8281 13.5H7.40625L8.0625 16.5H23.25C23.625 16.5 24 16.875 24 17.25C24 17.6719 23.625 18 23.25 18H7.5C7.125 18 6.84375 17.7656 6.75 17.4375L3.14062 1.5H0.75C0.328125 1.5 0 1.17188 0 0.75C0 0.375 0.328125 0 0.75 0H3.75ZM5.01562 3L7.03125 12H22.8281L25.3594 3H5.01562ZM6 21.375C6 19.9688 7.17188 18.75 8.625 18.75C10.0312 18.75 11.25 19.9688 11.25 21.375C11.25 22.8281 10.0312 24 8.625 24C7.17188 24 6 22.8281 6 21.375ZM8.625 22.5C9.23438 22.5 9.75 22.0312 9.75 21.375C9.75 20.7656 9.23438 20.25 8.625 20.25C7.96875 20.25 7.5 20.7656 7.5 21.375C7.5 22.0312 7.96875 22.5 8.625 22.5ZM24 21.375C24 22.8281 22.7812 24 21.375 24C19.9219 24 18.75 22.8281 18.75 21.375C18.75 19.9688 19.9219 18.75 21.375 18.75C22.7812 18.75 24 19.9688 24 21.375ZM21.375 20.25C20.7188 20.25 20.25 20.7656 20.25 21.375C20.25 22.0312 20.7188 22.5 21.375 22.5C21.9844 22.5 22.5 22.0312 22.5 21.375C22.5 20.7656 21.9844 20.25 21.375 20.25Z" fill="black"/>
</svg>
