<svg width="21" height="24" viewBox="0 0 21 24" fill="none" xmlns="http://www.w3.org/2000/svg">
<path d="M10.5 12C7.17188 12 4.5 9.32812 4.5 6C4.5 2.71875 7.17188 0 10.5 0C13.7812 0 16.5 2.71875 16.5 6C16.5 9.32812 13.7812 12 10.5 12ZM10.5 1.5C8.01562 1.5 6 3.5625 6 6C6 8.48438 8.01562 10.5 10.5 10.5C12.9375 10.5 15 8.48438 15 6C15 3.5625 12.9375 1.5 10.5 1.5ZM12.8438 14.25C17.3438 14.25 21 17.9062 21 22.4062C21 23.2969 20.25 24 19.3594 24H1.59375C0.703125 24 0 23.2969 0 22.4062C0 17.9062 3.60938 14.25 8.10938 14.25H12.8438ZM19.3594 22.5C19.4062 22.5 19.5 22.4531 19.5 22.4062C19.5 18.75 16.5 15.75 12.8438 15.75H8.10938C4.45312 15.75 1.5 18.75 1.5 22.4062C1.5 22.4531 1.54688 22.5 1.59375 22.5H19.3594Z" fill="black"/>
</svg>
